# xmcd
#
# Track frame offsets:
#	150
#	14708
#	36875
#	59997
#	79087
#	97504
#	129373
#	154626
#	172045
#	204085
#
# Disc length: 3013 seconds
#
# Revision: 1
# Processed by: cddbd v1.5.1PL0 Copyright (c) Steve Scherf et al.
# Submitted via: audiograbber 1.83.01
#
DISCID=7a0bc30a
DTITLE=Bruiser and the Virtues - From Vice to Virtue and Vice Versa
DYEAR=2001
DGENRE=Blues
TTITLE0=I Don't Like You
TTITLE1=Hot and Moveless
TTITLE2=Everybody Wants to be Loved
TTITLE3=I Love You For Your Mind
TTITLE4=No More Tears
TTITLE5=Save Your Love for Me
TTITLE6=Sacred of That
TTITLE7=Gangbusters
TTITLE8=The World Moves on a Woman's Hips
TTITLE9=Deuteronomy
EXTD=
EXTT0=
EXTT1=
EXTT2=
EXTT3=
EXTT4=
EXTT5=
EXTT6=
EXTT7=
EXTT8=
EXTT9=
PLAYORDER=
